<svg width="28" height="28" viewBox="0 0 28 28" fill="none" xmlns="http://www.w3.org/2000/svg">
<mask id="mask0_709_242" style="mask-type:alpha" maskUnits="userSpaceOnUse" x="0" y="0" width="28" height="28">
<rect width="28" height="28" fill="#D9D9D9"/>
</mask>
<g mask="url(#mask0_709_242)">
<path d="M12.833 19.8332H8.16634C6.55245 19.8332 5.17676 19.2644 4.03926 18.1269C2.90176 16.9894 2.33301 15.6137 2.33301 13.9998C2.33301 12.3859 2.90176 11.0103 4.03926 9.87275C5.17676 8.73525 6.55245 8.1665 8.16634 8.1665H12.833V10.4998H8.16634C7.19412 10.4998 6.36773 10.8401 5.68717 11.5207C5.00662 12.2012 4.66634 13.0276 4.66634 13.9998C4.66634 14.9721 5.00662 15.7984 5.68717 16.479C6.36773 17.1596 7.19412 17.4998 8.16634 17.4998H12.833V19.8332ZM9.33301 15.1665V12.8332H18.6663V15.1665H9.33301ZM15.1663 19.8332V17.4998H19.833C20.8052 17.4998 21.6316 17.1596 22.3122 16.479C22.9927 15.7984 23.333 14.9721 23.333 13.9998C23.333 13.0276 22.9927 12.2012 22.3122 11.5207C21.6316 10.8401 20.8052 10.4998 19.833 10.4998H15.1663V8.1665H19.833C21.4469 8.1665 22.8226 8.73525 23.9601 9.87275C25.0976 11.0103 25.6663 12.3859 25.6663 13.9998C25.6663 15.6137 25.0976 16.9894 23.9601 18.1269C22.8226 19.2644 21.4469 19.8332 19.833 19.8332H15.1663Z" fill="#5B5B5B"/>
</g>
</svg>
